<svg width="198" height="209" viewBox="0 0 198 209" fill="none" xmlns="http://www.w3.org/2000/svg">
<path d="M1 11C32.2631 3.10532 72.3269 -6.15388 102 11.2223C120.781 22.2203 154.027 69.1976 112.5 72.8889C104.836 73.5702 92.1435 73.6349 88.6111 65C86.0612 58.7669 88.0303 50.3099 92.6667 45.8334C102.758 36.0899 112.229 27.4082 125.111 21.4445C139.143 14.9482 159.917 10.9368 175.222 15.2223C199.873 22.1244 200.332 47.7266 191.778 67.2223C180.146 93.731 164.591 119.402 147.111 142.444C138.097 154.327 121.268 193.964 115 206.5" stroke="white" stroke-width="2" stroke-linecap="round" stroke-linejoin="round"/>
<path d="M107.5 180L114 208L142 191.5" stroke="white" stroke-width="2" stroke-linecap="round" stroke-linejoin="round"/>
</svg>
